<svg xmlns="http://www.w3.org/2000/svg" xmlns:xlink="http://www.w3.org/1999/xlink" width="11" height="12" viewBox="0 0 11 12">
    <defs>
        <path id="a" d="M0 0h11v12H0z"/>
    </defs>
    <g fill="none" fill-rule="evenodd">
        <mask id="b" fill="#fff">
            <use xlink:href="#a"/>
        </mask>
        <path fill="#6B6D8A" d="M3.488 6.933h4.024c.522 0 1.227.212 1.765.621.538.41.918.981.918 1.78V11.2H.805V9.333c0-.798.38-1.37.918-1.779.538-.409 1.243-.62 1.765-.62zm0-.8c-.725 0-1.563.257-2.255.784C.54 7.443 0 8.273 0 9.333V11.6c0 .22.18.4.402.4h10.196c.222 0 .402-.18.402-.4V9.333c0-1.06-.54-1.89-1.232-2.416-.693-.527-1.53-.784-2.256-.784H3.488zM5.5.8a2 2 0 1 1 0 4 2 2 0 1 1 0-4zm0-.8C3.949 0 2.683 1.258 2.683 2.8c0 1.542 1.266 2.8 2.817 2.8 1.551 0 2.817-1.258 2.817-2.8C8.317 1.258 7.051 0 5.5 0z" mask="url(#b)"/>
    </g>
</svg>
